<svg xmlns="http://www.w3.org/2000/svg" viewBox="0 0 51 38.2" enable-background="new 0 0 51 38.2"><path fill="#fff" stroke="#fff" stroke-miterlimit="10" d="M48.1 5.3h-7.2l-8 21.7c-.1.3-.3.6-.5.8-.4.5-1.1.8-1.8.8h-21.8c-1.3 0-2.4-1.1-2.4-2.4s1.1-2.4 2.4-2.4h20.2l1.1-2.9h-24.9c-1.3 0-2.4-1.1-2.4-2.4 0-1.3 1.1-2.4 2.4-2.4h26.7l1-2.8h-30c-1.3 0-2.4-1.1-2.4-2.4 0-1.3 1.1-2.4 2.4-2.4h31.8l2.3-6.4c.3-.9 1.2-1.5 2.2-1.6h9c1.3 0 2.4 1.1 2.4 2.4-.1 1.3-1.2 2.4-2.5 2.4zm-34.6 25.5c1.9 0 3.4 1.5 3.4 3.4s-1.5 3.4-3.4 3.4-3.4-1.5-3.4-3.4 1.5-3.4 3.4-3.4zm14.7 0c1.9 0 3.4 1.5 3.4 3.4s-1.5 3.4-3.4 3.4-3.4-1.5-3.4-3.4 1.5-3.4 3.4-3.4z"/></svg>
