<?xml version="1.0" encoding="UTF-8" standalone="no"?>
<svg style="background-colo:#000000"
     xmlns="http://www.w3.org/2000/svg"
     viewBox="2 -27 260 260">
 <g transform="matrix(2.1830358,0,0,2.1830358,13.142861,-2003.839)">
  <g transform="matrix(0.25599999,0,0,0.25599999,0,782.95743)">
   <path style="fill:#ffffff;fill-opacity:1;stroke:none"
         d="m 107.53072,527.44767 -43.283553,18.23124 20.138468,39.36746 c -152.751183,93.45105 -97.9346,273.34162 -99.472949,286.17158 L 240.15929,758.5751 142.61579,588.21009 C 198.87478,567.55794 261.078,562.3061 356.37735,642.556 l -68.65723,29.44378 -61.83204,-76.98849 c -18.54891,-0.36175 -36.86368,1.6366 -54.64152,9.15018 L 267.53599,746.5953 474.62312,654.84649 C 420.0028,607.89462 299.70809,499.94708 127.22032,561.51076 l -19.6896,-34.06309 z m -9.226383,84.65335 59.492503,115.19113 -96.70136,43.6672 C 35.427215,685.56613 61.827154,644.53621 98.304337,612.10102 z" />
  </g>
 </g>
</svg>
