<?xml version="1.0" encoding="UTF-8" standalone="no"?>
<svg style="background-colo:#000000" 
   xmlns="http://www.w3.org/2000/svg"
   viewBox="-3.5 -5 42 42">
 <g transform="matrix(1.25,0,0,-1.25,-62.858573,644.66585)">
  <g transform="translate(77.016837,536.66339)">
   <path d="m -15.47668,-56.943887 c -2.03793,1.417703 -4.14869,1.888969 -2.364442,4.049076 0.815,-0.149 1.842914,3.423837 1.842914,3.855837 0,0.386 -0.014,1.411 -0.022,2.77 -4.531,-0.984 -5.487,2.184 -5.487,2.184 -0.741,1.881 -1.809,2.382 -1.809,2.382 -1.479,1.011 0.112,0.991 0.112,0.991 1.635,-0.116 2.495,-1.679 2.495,-1.679 1.453,-2.489 3.813,-1.77 4.741,-1.354 0.148,1.053 0.568,1.771 1.034,2.178 -3.617,0.411 -7.42,1.809 -7.42,8.051 0,1.778 0.635,3.232 1.677,4.371 -0.168,0.412 -0.727,2.068 0.159,4.311 0,0 1.368,0.438 4.48,-1.67 1.299,0.361 2.693,0.542 4.078,0.548 1.383,-0.006 2.7769996,-0.187 4.0779996,-0.548 3.11,2.108 4.475,1.67 4.475,1.67 0.889,-2.243 0.33,-3.899 0.162,-4.311 1.044,-1.139 1.675,-2.593 1.675,-4.371 0,-6.258 -3.809,-7.635 -7.438,-8.038 0.585,-0.503 1.106,-1.497 1.106,-3.017 0,-2.177 -0.02,-3.934 -0.02,-4.468 0,-0.436 1.608644,-3.720472 2.435644,-3.561472 1.880955,-3.084286 -2.5477053,-4.550182 -2.5477053,-4.550182"
  style="fill:#ffffff;fill-opacity:1;fill-rule:evenodd;stroke:none" />
  </g>
 </g>
</svg>
