<?xml version="1.0" encoding="UTF-8" standalone="no"?>
<svg xmlns="http://www.w3.org/2000/svg" viewBox="35.7 1.1 10 10" enable-background="new 0 0 51 38.2">
<path fill="#fff" stroke="#000" stroke-width="0" d="M39.5517578,3.5273438c0.0092773,0.4013672-0.2773438,0.6782227-0.6591797,0.6782227      c-0.34375,0-0.6303711-0.2768555-0.6210938-0.6782227c-0.0092773-0.4199219,0.2963867-0.6875,0.6401367-0.6875      C39.2744141,2.8398438,39.5517578,3.1074219,39.5517578,3.5273438z M38.300293,9.4306641v-4.6708984h1.2514648      v4.6708984H238.300293z" />
<path fill="#fff" stroke="#000" stroke-width="0" d="M40.15625,6.1640625c0-0.5063477-0.019043-0.9555664-0.0380859-1.4042969h1.0791016l0.0668945,0.534668h0.019043      c0.2387695-0.362793,0.6401367-0.6113281,1.1274414-0.6113281c0.8881836,0,1.2416992,0.7070313,1.2416992,1.7480469v2.9995117      h-1.2514648v-2.9228516c0-0.3916016-0.0957031-0.7739258-0.4584961-0.7739258      c-0.2099609,0-0.3818359,0.1435547-0.4677734,0.4204102c-0.0385742,0.0957031-0.0668945,0.2485352-0.0668945,0.4296875      v2.8466797H40.15625V6.1640625z" />
</svg>
